# xmcd
#
# Track frame offsets: 
#        150
#        23186
#        45741
#        70762
#        92786
#        111897
#        132349
#        153375
#        170680
#        190214
#        206787
#        228520
#
# Disc length: 3308 seconds
#
# Revision: 0
# Processed by: cddbd v1.5.2PL0 Copyright (c) Steve Scherf et al.
# Submitted via: ExactAudioCopyFreeDBPlugin 1.0
#
DISCID=a80cea0c
DTITLE=群星 - DTS51呼吸我
DYEAR=2005
DGENRE=DTS
TTITLE0=那一天
TTITLE1=黄昏
TTITLE2=东风破
TTITLE3=老鼠爱大米
TTITLE4=别说我的眼泪你无所谓
TTITLE5=你到底爱谁
TTITLE6=回心转意
TTITLE7=两只蝴蝶
TTITLE8=痴心绝对
TTITLE9=他一定很爱你
TTITLE10=星睛
TTITLE11=比我幸福
EXTD=
EXTT0=
EXTT1=
EXTT2=
EXTT3=
EXTT4=
EXTT5=
EXTT6=
EXTT7=
EXTT8=
EXTT9=
EXTT10=
EXTT11=
PLAYORDER=
